<svg width="129.3" height="96.8" viewBox="0 0 129.3 96.8" xmlns="http://www.w3.org/2000/svg"><g id="svgGroup" stroke-linecap="round" fill-rule="evenodd" font-size="9pt" stroke="#00000000" stroke-width="0.25mm" fill="#ffffff" style="stroke:#00000000;stroke-width:0.25mm;fill:#ffffff"><path d="M 64.9 78.3 L 68.3 60.7 L 54.4 60.7 L 51 78.3 L 40.3 78.3 L 43.7 60.7 L 35.7 60.7 L 35.7 51.2 L 45.5 51.2 L 48.4 36.1 L 35.7 36.1 L 35.7 26.7 L 50.2 26.7 L 53.6 9 L 64.3 9 L 60.9 26.7 L 74.8 26.7 L 78.2 9 L 88.9 9 L 85.5 26.7 L 93.6 26.7 L 93.6 36.1 L 83.7 36.1 L 80.8 51.2 L 93.6 51.2 L 93.6 60.7 L 79 60.7 L 75.6 78.3 L 64.9 78.3 Z M 0 53.2 L 0 43.7 A 11.721 11.721 0 0 0 2.576 43.436 Q 4.25 43.058 5.462 42.143 A 6.565 6.565 0 0 0 6.75 40.85 A 10.659 10.659 0 0 0 8.866 35.059 A 13.475 13.475 0 0 0 8.9 34.1 L 8.9 19.4 A 41.912 41.912 0 0 1 9.098 15.225 Q 9.322 12.989 9.8 11.05 A 14.646 14.646 0 0 1 11.203 7.417 A 12.386 12.386 0 0 1 13 4.95 Q 15.165 2.644 18.926 1.401 A 21.36 21.36 0 0 1 19.4 1.25 A 25.024 25.024 0 0 1 22.798 0.488 Q 24.543 0.214 26.572 0.094 A 56.385 56.385 0 0 1 29.9 0 L 30.6 0 L 30.6 9.6 Q 28.38 9.6 26.687 9.835 A 16.771 16.771 0 0 0 25.7 10 A 8.682 8.682 0 0 0 24.233 10.422 Q 23.222 10.819 22.5 11.45 A 5.651 5.651 0 0 0 21.117 13.309 A 7.302 7.302 0 0 0 20.75 14.25 A 10.44 10.44 0 0 0 20.415 15.696 Q 20.2 17.013 20.2 18.7 L 20.2 33 A 37.821 37.821 0 0 1 20.033 36.674 Q 19.691 40.165 18.65 42.55 A 12.43 12.43 0 0 1 14.916 47.334 A 15.894 15.894 0 0 1 13.4 48.4 A 14.253 14.253 0 0 1 16.624 51.094 A 12.082 12.082 0 0 1 18.65 54.3 Q 19.776 56.916 20.084 60.746 A 38.179 38.179 0 0 1 20.2 63.8 L 20.2 78.2 A 21.792 21.792 0 0 0 20.265 79.938 Q 20.333 80.784 20.472 81.501 A 9.34 9.34 0 0 0 20.75 82.6 A 6.624 6.624 0 0 0 21.518 84.223 A 5.571 5.571 0 0 0 22.5 85.35 Q 23.627 86.337 25.461 86.749 A 10.174 10.174 0 0 0 25.7 86.8 A 18.17 18.17 0 0 0 27.327 87.044 Q 28.788 87.2 30.6 87.2 L 30.6 96.8 Q 25.961 96.8 22.521 96.225 A 25.742 25.742 0 0 1 19.7 95.6 Q 15.891 94.512 13.562 92.395 A 11.068 11.068 0 0 1 13.1 91.95 A 12.714 12.714 0 0 1 10.048 86.782 A 15.308 15.308 0 0 1 9.8 85.9 A 28.362 28.362 0 0 1 9.154 82.261 Q 8.9 80.05 8.9 77.5 L 8.9 62.7 A 11.319 11.319 0 0 0 8.181 58.624 A 10.461 10.461 0 0 0 6.75 56.05 A 6.822 6.822 0 0 0 2.99 53.568 Q 1.653 53.2 0 53.2 Z M 129.3 43.7 L 129.3 53.2 A 11.721 11.721 0 0 0 126.724 53.465 Q 125.05 53.842 123.838 54.758 A 6.565 6.565 0 0 0 122.55 56.05 A 10.663 10.663 0 0 0 120.405 62.346 A 13.202 13.202 0 0 0 120.4 62.7 L 120.4 77.5 Q 120.4 82.3 119.5 85.9 Q 118.6 89.5 116.2 91.95 A 12.381 12.381 0 0 1 113.142 94.2 Q 111.765 94.933 110.086 95.455 A 21.877 21.877 0 0 1 109.6 95.6 A 26.68 26.68 0 0 1 106.258 96.308 Q 104.472 96.577 102.379 96.699 A 63.342 63.342 0 0 1 98.7 96.8 L 98.7 87.2 Q 103.296 87.2 105.694 86.039 A 5.768 5.768 0 0 0 106.8 85.35 Q 108.906 83.656 109.084 79.07 A 22.478 22.478 0 0 0 109.1 78.2 L 109.1 63.8 A 36.675 36.675 0 0 1 109.279 60.056 Q 109.464 58.261 109.839 56.748 A 15.837 15.837 0 0 1 110.65 54.3 Q 112.2 50.7 115.9 48.4 A 14.505 14.505 0 0 1 112.758 45.81 A 12.027 12.027 0 0 1 110.65 42.55 Q 109.557 40.047 109.235 36.325 A 38.634 38.634 0 0 1 109.1 33 L 109.1 18.7 A 21.828 21.828 0 0 0 109.029 16.882 Q 108.902 15.371 108.55 14.25 A 6.841 6.841 0 0 0 107.865 12.719 A 5.475 5.475 0 0 0 106.8 11.45 Q 105.673 10.464 103.839 10.051 A 10.174 10.174 0 0 0 103.6 10 Q 101.6 9.6 98.7 9.6 L 98.7 0 L 99.4 0 A 54.194 54.194 0 0 1 103.528 0.148 Q 105.57 0.304 107.307 0.626 A 23.742 23.742 0 0 1 109.9 1.25 Q 113.598 2.378 115.832 4.481 A 10.769 10.769 0 0 1 116.3 4.95 A 12.88 12.88 0 0 1 119.03 9.484 A 15.999 15.999 0 0 1 119.5 11.05 Q 120.372 14.586 120.399 19.107 A 48.583 48.583 0 0 1 120.4 19.4 L 120.4 34.1 A 11.872 11.872 0 0 0 120.972 37.843 A 10.348 10.348 0 0 0 122.55 40.85 A 6.822 6.822 0 0 0 126.31 43.332 Q 127.647 43.7 129.3 43.7 Z M 59.1 36.1 L 56.2 51.2 L 70.1 51.2 L 73 36.1 L 59.1 36.1 Z" vector-effect="non-scaling-stroke"/></g></svg>